Genre:Thriller 
Language:English.Italian
IMDb:http://www.imdb.com/title/tt0976040/
Source:DVD
Subtitles:English where needed


Format : AVI
Format/Info : Audio Video Interleave
File size : 1.19 GiB
Duration : 1h 40mn
Overall bit rate : 1 690 Kbps


Video
Codec ID/Hint : XviD
Duration : 1h 40mn
Bit rate : 1 232 Kbps
Width : 720 pixels
Height : 304 pixels
Display aspect ratio : 2.35:1
Frame rate : 25.000 fps
Color space : YUV
Chroma subsampling : 4:2:0
Bit depth : 8 bits
Scan type : Progressive
Bits/(Pixel*Frame) : 0.225
Stream size : 888 MiB (73%)
Writing library : XviD 1.2.1 (UTC 2008-12-04)

Audio
ID : 1
Format : AC-3
Format/Info : Audio Coding 3
Mode extension : CM (complete main)
Codec ID : 2000
Duration : 1h 40mn
Bit rate mode : Constant
Bit rate : 448 Kbps
Channel(s) : 6 channels
Channel positions : Front: L C R, Side: L R, LFE
Sampling rate : 48.0 KHz
Bit depth : 16 bits
Stream size : 323 MiB (27%)
Alignment : Split accross interleaves
Interleave, duration : 40 ms (1.00 video frame)
Interleave, preload duration : 500 ms


Plot:
Anthony's family runs a small Italian restaurant in London. When his childhood friend, Dario, dies in a suspicious accident.






================================== 
http://thepiratebay.org/user/hiest
==================================






Screens:
 
http://img814.imageshack.us/img814/7862/vlcsnap2010123021h06m07.png
 
http://img151.imageshack.us/img151/4388/vlcsnap2010123021h06m15.png
 
http://img143.imageshack.us/img143/2995/vlcsnap2010123021h06m54.png
 
http://img5.imageshack.us/img5/2893/vlcsnap2010123021h06m25.png
 
http://img32.imageshack.us/img32/7511/vlcsnap2010123021h06m32.png
 
http://img832.imageshack.us/img832/3569/vlcsnap2010123021h06m44.png





Greets:

INK,CRYS,IMAGINE,LKRG,FXG,3Li,FLAWL3SS,TA,ViSiON,LU,PrisM,Noir,WBZ,LAP,Rx,Kingdom,SAFCuk009+Fabreezy,HDLiTE,TWiZTED,ExtraTorrentRG.ELEKTRI4KA,MAGNAT,CM8
And to all the other p2p grps past and present